<svg width="17" height="15" viewBox="0 0 17 15" fill="none" xmlns="http://www.w3.org/2000/svg">
<path d="M11.4042 7.92078L10.3771 6.89369C10.4833 6.33883 10.324 5.81939 9.89895 5.33536C9.47395 4.85133 8.925 4.66244 8.25208 4.76869L7.22499 3.74161C7.42569 3.64717 7.62933 3.57633 7.83593 3.52911C8.04253 3.48189 8.26388 3.45828 8.49999 3.45828C9.38541 3.45828 10.138 3.76817 10.7578 4.38796C11.3776 5.00776 11.6875 5.76036 11.6875 6.64578C11.6875 6.88189 11.6639 7.10324 11.6167 7.30984C11.5694 7.51644 11.4986 7.72008 11.4042 7.92078ZM13.6708 10.152L12.6437 9.16036C13.0924 8.818 13.4908 8.44317 13.8391 8.03588C14.1873 7.62859 14.4854 7.16522 14.7333 6.64578C14.1431 5.45342 13.296 4.50602 12.1922 3.80359C11.0884 3.10116 9.85763 2.74994 8.49999 2.74994C8.15763 2.74994 7.82118 2.77355 7.49062 2.82078C7.16006 2.868 6.83541 2.93883 6.51666 3.03328L5.41875 1.93536C5.90277 1.73467 6.39861 1.58414 6.90624 1.4838C7.41388 1.38345 7.94513 1.33328 8.49999 1.33328C10.2826 1.33328 11.8705 1.82616 13.2635 2.81192C14.6566 3.79769 15.666 5.07564 16.2917 6.64578C16.0201 7.3423 15.663 7.98866 15.2203 8.58484C14.7776 9.18102 14.2611 9.70342 13.6708 10.152ZM14.025 14.5083L11.05 11.5687C10.6368 11.6986 10.2207 11.796 9.80156 11.8609C9.38246 11.9258 8.94861 11.9583 8.49999 11.9583C6.71736 11.9583 5.12951 11.4654 3.73645 10.4796C2.3434 9.49387 1.33402 8.21592 0.708328 6.64578C0.956245 6.02008 1.26909 5.43866 1.64687 4.90151C2.02465 4.36435 2.45555 3.88328 2.93958 3.45828L0.991662 1.47494L1.98333 0.483276L15.0167 13.5166L14.025 14.5083ZM3.93124 4.44994C3.58888 4.75689 3.27604 5.09335 2.9927 5.45932C2.70937 5.82529 2.46736 6.22078 2.26666 6.64578C2.85694 7.83814 3.70399 8.78553 4.80781 9.48796C5.91163 10.1904 7.14236 10.5416 8.49999 10.5416C8.73611 10.5416 8.96631 10.5269 9.19062 10.4973C9.41493 10.4678 9.64513 10.4354 9.88124 10.3999L9.24374 9.72703C9.11388 9.76244 8.98993 9.78901 8.87187 9.80672C8.75381 9.82442 8.62986 9.83328 8.49999 9.83328C7.61458 9.83328 6.86197 9.52338 6.24218 8.90359C5.62239 8.2838 5.31249 7.53119 5.31249 6.64578C5.31249 6.51592 5.32135 6.39196 5.33906 6.2739C5.35677 6.15585 5.38333 6.03189 5.41875 5.90203L3.93124 4.44994Z" fill="#002D40"/>
</svg>
